<svg width="24" height="25" viewBox="0 0 24 25" fill="none" xmlns="http://www.w3.org/2000/svg">
<path d="M8.4 17.5898L12 13.9898L15.6 17.5898L17 16.1898L13.4 12.5898L17 8.98984L15.6 7.58984L12 11.1898L8.4 7.58984L7 8.98984L10.6 12.5898L7 16.1898L8.4 17.5898ZM12 22.5898C10.6167 22.5898 9.31667 22.3273 8.1 21.8023C6.88333 21.2773 5.825 20.5648 4.925 19.6648C4.025 18.7648 3.3125 17.7065 2.7875 16.4898C2.2625 15.2732 2 13.9732 2 12.5898C2 11.2065 2.2625 9.90651 2.7875 8.68984C3.3125 7.47318 4.025 6.41484 4.925 5.51484C5.825 4.61484 6.88333 3.90234 8.1 3.37734C9.31667 2.85234 10.6167 2.58984 12 2.58984C13.3833 2.58984 14.6833 2.85234 15.9 3.37734C17.1167 3.90234 18.175 4.61484 19.075 5.51484C19.975 6.41484 20.6875 7.47318 21.2125 8.68984C21.7375 9.90651 22 11.2065 22 12.5898C22 13.9732 21.7375 15.2732 21.2125 16.4898C20.6875 17.7065 19.975 18.7648 19.075 19.6648C18.175 20.5648 17.1167 21.2773 15.9 21.8023C14.6833 22.3273 13.3833 22.5898 12 22.5898ZM12 20.5898C14.2333 20.5898 16.125 19.8148 17.675 18.2648C19.225 16.7148 20 14.8232 20 12.5898C20 10.3565 19.225 8.46484 17.675 6.91484C16.125 5.36484 14.2333 4.58984 12 4.58984C9.76667 4.58984 7.875 5.36484 6.325 6.91484C4.775 8.46484 4 10.3565 4 12.5898C4 14.8232 4.775 16.7148 6.325 18.2648C7.875 19.8148 9.76667 20.5898 12 20.5898Z" fill="#49454F"/>
</svg>
