<svg width="28" height="24" viewBox="0 0 28 24" fill="none" xmlns="http://www.w3.org/2000/svg">
<path d="M22.8333 7.7223C25.3897 9.51169 27 11.6022 27 12.4964C27 14.2046 21.6575 19.2923 14 19.2923C12.9543 19.2923 11.9517 19.1974 11 19.0292M19.8333 6.01984C18.0744 5.23717 16.0909 4.71381 14 4.71381C6.87671 4.71381 1 10.7882 1 12.4964C1 13.7252 3.76452 16.7027 8.16667 18.2773M13.7762 16.0154C14.6604 16.1001 15.5775 15.9117 16.4049 15.4161C17.6558 14.667 18.4231 13.3827 18.5933 12.0031M11.3333 14.966C10.9414 14.6273 10.5995 14.2124 10.3296 13.7275C9.10145 11.521 9.83028 8.69943 11.9575 7.42548C13.8159 6.31249 16.1268 6.7489 17.5 8.34832M24.1667 1.58984L4 22.5898" stroke="black" stroke-width="2" stroke-linecap="round"/>
</svg>
