<svg width="47" height="48" viewBox="0 0 47 48" fill="none" xmlns="http://www.w3.org/2000/svg">
<g clip-path="url(#clip0_4404_5989)">
<path fill-rule="evenodd" clip-rule="evenodd" d="M30.7166 8.09309C32.4299 6.10736 33.5848 3.34165 33.2687 0.589844C30.7998 0.683844 27.8127 2.16704 26.0424 4.15041C24.4526 5.91054 23.0649 8.72295 23.4379 11.4207C26.1921 11.6252 29.0033 10.0811 30.7166 8.09309ZM36.8926 25.5586C36.9615 32.6719 43.4037 35.0382 43.475 35.0687C43.4227 35.2356 42.446 38.4404 40.0816 41.7539C38.0356 44.6161 35.9136 47.4668 32.5701 47.5279C29.286 47.5866 28.2286 45.6621 24.4716 45.6621C20.7171 45.6621 19.5432 47.4665 16.4349 47.5864C13.2079 47.7015 10.7484 44.4897 8.68817 41.6368C4.4726 35.8018 1.2527 25.1475 5.57758 17.9567C7.72577 14.3871 11.5635 12.1231 15.7316 12.0667C18.8992 12.008 21.891 14.1092 23.8277 14.1092C25.7643 14.1092 29.4001 11.583 33.2212 11.9543C34.8205 12.0177 39.3117 12.5722 42.1942 16.6164C41.9613 16.7551 36.8356 19.6132 36.8926 25.5586Z" fill="black"/>
</g>
<defs>
<clipPath id="clip0_4404_5989">
<rect width="47" height="47" fill="white" transform="translate(0 0.589844)"/>
</clipPath>
</defs>
</svg>
