<svg width="22" height="22" viewBox="0 0 22 22" fill="none" xmlns="http://www.w3.org/2000/svg">
<path fill-rule="evenodd" clip-rule="evenodd" d="M5.78707 11.4243C5.68339 8.51771 7.89228 6.07302 10.7259 5.95825C13.5596 6.07302 15.7685 8.51771 15.6648 11.4243C15.6648 12.6316 16.9438 13.8077 16.9812 15.0177C16.9812 15.0348 16.9812 15.0519 16.9812 15.069C17.0089 15.8442 16.4197 16.4962 15.6639 16.5265H12.8111C12.8137 17.1205 12.5954 17.6932 12.2007 18.1279C11.8211 18.5507 11.2863 18.7912 10.7259 18.7912C10.1656 18.7912 9.63087 18.5507 9.25128 18.1279C8.85648 17.6932 8.63817 17.1205 8.64082 16.5265H5.78707C5.0313 16.4962 4.44201 15.8442 4.46969 15.069C4.46969 15.0519 4.46969 15.0348 4.46969 15.0177C4.50812 13.8113 5.78707 12.6325 5.78707 11.4243Z" stroke="white" stroke-width="1.75" stroke-linecap="round" stroke-linejoin="round"/>
<path d="M7.86786 15.6027C7.38856 15.6027 7 15.9155 7 16.3014C7 16.6872 7.38856 17 7.86786 17V15.6027ZM13.1321 17C13.6114 17 14 16.6872 14 16.3014C14 15.9155 13.6114 15.6027 13.1321 15.6027V17ZM11.6282 4.3973C12.1075 4.3973 12.4961 4.0845 12.4961 3.69865C12.4961 3.3128 12.1075 3 11.6282 3V4.3973ZM9.37177 3C8.89248 3 8.50392 3.3128 8.50392 3.69865C8.50392 4.0845 8.89248 4.3973 9.37177 4.3973V3ZM7.86786 17H13.1321V15.6027H7.86786V17ZM11.6282 3H9.37177V4.3973H11.6282V3Z" fill="white"/>
</svg>
