<svg width="37" height="35" viewBox="0 0 37 35" fill="none" xmlns="http://www.w3.org/2000/svg">
<path d="M18.5 32.0832C27.0143 32.0832 33.9167 25.5539 33.9167 17.4998C33.9167 9.44568 27.0143 2.9165 18.5 2.9165C9.98559 2.9165 3.08331 9.44568 3.08331 17.4998C3.08331 19.8327 3.66239 22.0376 4.69198 23.9931C4.9656 24.5127 5.05666 25.1067 4.89804 25.6674L3.97981 28.9138C3.58119 30.323 4.94412 31.6121 6.4339 31.2352L9.86571 30.3666C10.4585 30.2165 11.0864 30.3027 11.6358 30.5614C13.7029 31.5354 16.0338 32.0832 18.5 32.0832Z" stroke="#434A54" stroke-width="3.75"/>
<g clip-path="url(#clip0_5081_12409)">
<path d="M13.5211 13.8896L16.2659 16.4929C16.7371 16.0651 17.1457 15.6942 17.4521 15.4155L14.6831 12.7899L14.3443 11.3693L11.8735 9.94873L11.1955 10.5906L10.5175 11.2319L12.0193 13.5692L13.5211 13.8896Z" fill="#434A54"/>
<path d="M21.8624 18.1309L25.9212 21.9581C26.6695 22.6655 26.6695 23.8128 25.9212 24.5206C25.1729 25.228 23.9606 25.228 23.2123 24.5206L19.1535 20.6934L21.8624 18.1309Z" fill="#434A54"/>
<path d="M25.1996 15.8658C26.5972 14.6661 26.8307 13.3028 26.5181 12.1531C26.5089 12.0619 26.4858 11.9852 26.4016 11.9279L26.1203 11.7099C26.0716 11.6666 26.0059 11.6458 25.9402 11.6516C25.874 11.6579 25.8139 11.69 25.775 11.7409L24.1572 13.7305C24.112 13.7893 24.0391 13.8228 23.9627 13.8204L23.3755 13.8612C23.3252 13.8597 23.2764 13.8427 23.2369 13.8126L22.1026 12.9032C22.0565 12.8678 22.0262 12.8173 22.0185 12.7615L21.9481 12.2585C21.9399 12.2031 21.9548 12.1468 21.9897 12.1011L23.5043 10.1547C23.5731 10.0654 23.5597 9.9416 23.4745 9.86634L23.107 9.59446C23.0352 9.53135 22.9536 9.54008 22.8422 9.56047C21.7962 9.75563 20.0101 10.714 19.5569 12.0385C19.1576 13.2042 19.2966 14.0262 19.2966 14.0262C19.2966 14.6831 19.0682 15.3162 18.7875 15.5817L10.8958 22.7488C10.8804 22.762 10.8655 22.7755 10.8507 22.7896C10.1988 23.4062 10.1998 24.4069 10.8296 25.0026C11.4594 25.5983 12.5331 25.6138 13.1849 24.9972C13.2152 24.9686 13.2445 24.939 13.2717 24.9084L20.8816 17.1267C21.8178 16.3382 23.6711 17.1781 25.1996 15.8658Z" fill="#434A54"/>
</g>
<defs>
<clipPath id="clip0_5081_12409">
<rect width="16.8182" height="15.9091" fill="white" transform="translate(10.0909 9.54541)"/>
</clipPath>
</defs>
</svg>
