<svg width="34" height="34" viewBox="0 0 34 34" fill="none" xmlns="http://www.w3.org/2000/svg">
<path d="M32.5518 1.44462C32.1684 1.04713 31.5353 1.03573 31.1378 1.41916C30.7403 1.80258 30.7289 2.43565 31.1124 2.83314L32.5518 1.44462ZM32.0617 7.65622L32.7814 8.35048L32.8133 8.31736L32.8421 8.28145L32.0617 7.65622ZM31.1159 2.83681C31.4993 3.2343 32.1324 3.24571 32.5299 2.86228C32.9274 2.47885 32.9388 1.84579 32.5553 1.44829L31.1159 2.83681ZM26.5135 1.90454L25.861 1.14672L25.8259 1.17694L25.7938 1.21028L26.5135 1.90454ZM23.7165 3.36368C23.3331 3.76118 23.3445 4.39424 23.742 4.77767C24.1395 5.1611 24.7726 5.1497 25.156 4.7522L23.7165 3.36368ZM29.2647 9.11537C28.8813 9.51286 28.8927 10.1459 29.2902 10.5294C29.6877 10.9128 30.3208 10.9014 30.7042 10.5039L29.2647 9.11537ZM3.75606 2.83314C4.13948 2.43565 4.12808 1.80258 3.73059 1.41916C3.3331 1.03573 2.70003 1.04713 2.31661 1.44462L3.75606 2.83314ZM2.80674 7.65622L2.0263 8.28145L2.05507 8.31736L2.08701 8.35048L2.80674 7.65622ZM2.31306 1.44829C1.92964 1.84579 1.94104 2.47885 2.33853 2.86228C2.73602 3.24571 3.36908 3.2343 3.75251 2.83681L2.31306 1.44829ZM8.35492 1.90454L9.07464 1.21028L9.04248 1.17694L9.00738 1.14672L8.35492 1.90454ZM9.71241 4.7522C10.0958 5.1497 10.7289 5.1611 11.1264 4.77767C11.5239 4.39424 11.5353 3.76118 11.1519 3.36368L9.71241 4.7522ZM4.16423 10.5039C4.54766 10.9014 5.18072 10.9128 5.57821 10.5294C5.97571 10.1459 5.98711 9.51286 5.60368 9.11537L4.16423 10.5039ZM26.7176 33.4866C26.9864 33.9691 27.5953 34.1424 28.0778 33.8736C28.5603 33.6049 28.7337 32.9959 28.4649 32.5134L26.7176 33.4866ZM6.63956 32.5134C6.37084 32.9959 6.54415 33.6049 7.02665 33.8736C7.50916 34.1424 8.11814 33.9691 8.38686 33.4866L6.63956 32.5134ZM17.667 16.8087H16.667V17.8087H17.667V16.8087ZM18.667 7.78614C18.667 7.23386 18.2193 6.78614 17.667 6.78614C17.1148 6.78614 16.667 7.23386 16.667 7.78614H18.667ZM22.5022 17.8087C23.0545 17.8087 23.5022 17.3609 23.5022 16.8087C23.5022 16.2564 23.0545 15.8087 22.5022 15.8087V17.8087ZM31.1124 2.83314C31.113 2.8338 31.1133 2.83416 31.1136 2.83448L32.5541 1.44695C32.5532 1.44605 32.5523 1.44519 32.5518 1.44462L31.1124 2.83314ZM31.1136 2.83448C32.2041 3.96648 32.1541 5.94143 31.2812 7.03099L32.8421 8.28145C34.2788 6.48809 34.4115 3.37521 32.5541 1.44695L31.1136 2.83448ZM32.5553 1.44829C32.5549 1.44788 32.554 1.4469 32.5531 1.44596L31.1146 2.83547C31.1149 2.83576 31.1151 2.836 31.1159 2.83681L32.5553 1.44829ZM32.5531 1.44596C30.674 -0.49935 27.6141 -0.362594 25.861 1.14672L27.166 2.66236C28.1938 1.77737 30.0417 1.72475 31.1146 2.83547L32.5531 1.44596ZM25.7938 1.21028L23.7165 3.36368L25.156 4.7522L27.2332 2.5988L25.7938 1.21028ZM31.3419 6.96196L29.2647 9.11537L30.7042 10.5039L32.7814 8.35048L31.3419 6.96196ZM2.31661 1.44462C2.31584 1.44542 2.31509 1.44619 2.31436 1.44695L3.75476 2.83448C3.75521 2.83401 3.75564 2.83357 3.75606 2.83314L2.31661 1.44462ZM2.31436 1.44695C0.456895 3.37521 0.589588 6.48809 2.0263 8.28145L3.58718 7.03099C2.7143 5.94143 2.66432 3.96648 3.75476 2.83448L2.31436 1.44695ZM3.75251 2.83681C3.75293 2.83638 3.75336 2.83594 3.75381 2.83547L2.31531 1.44596C2.31458 1.44672 2.31383 1.4475 2.31306 1.44829L3.75251 2.83681ZM3.75381 2.83547C4.82671 1.72475 6.67457 1.77737 7.70246 2.66236L9.00738 1.14672C7.25435 -0.362594 4.19439 -0.49935 2.31531 1.44596L3.75381 2.83547ZM7.63519 2.5988L9.71241 4.7522L11.1519 3.36368L9.07464 1.21028L7.63519 2.5988ZM2.08701 8.35048L4.16423 10.5039L5.60368 9.11537L3.52646 6.96196L2.08701 8.35048ZM23.5626 27.8215L26.7176 33.4866L28.4649 32.5134L25.3099 26.8484L23.5626 27.8215ZM9.79458 26.8484L6.63956 32.5134L8.38686 33.4866L11.5419 27.8215L9.79458 26.8484ZM18.667 16.8087V7.78614H16.667V16.8087H18.667ZM17.667 17.8087H22.5022V15.8087H17.667V17.8087ZM30.2055 16.0568C30.2055 23.1517 24.6664 28.8412 17.9088 28.8412V30.8412C25.8383 30.8412 32.2055 24.1877 32.2055 16.0568H30.2055ZM17.9088 28.8412C11.1512 28.8412 5.61211 23.1517 5.61211 16.0568H3.61211C3.61211 24.1877 9.97931 30.8412 17.9088 30.8412V28.8412ZM5.61211 16.0568C5.61211 8.96189 11.1512 3.27238 17.9088 3.27238V1.27238C9.97931 1.27238 3.61211 7.92584 3.61211 16.0568H5.61211ZM17.9088 3.27238C24.6664 3.27238 30.2055 8.96189 30.2055 16.0568H32.2055C32.2055 7.92584 25.8383 1.27238 17.9088 1.27238V3.27238Z" fill="#ED5637"/>
</svg>
