<svg width="22" height="22" viewBox="0 0 22 22" fill="none" xmlns="http://www.w3.org/2000/svg">
<circle cx="10.6388" cy="10.6388" r="10.1388" stroke="#137C8E"/>
<path d="M9.8204 9.00197H16.3673M9.8204 9.00197C9.8204 9.90592 9.08761 10.6387 8.18366 10.6387C7.27972 10.6387 6.54692 9.90592 6.54692 9.00197M9.8204 9.00197C9.8204 8.09803 9.08761 7.36523 8.18366 7.36523C7.27972 7.36523 6.54692 8.09803 6.54692 9.00197M4.91019 9.00197H6.54692M13.9122 13.0938H16.3673M13.9122 13.0938C13.9122 13.9978 13.1795 14.7306 12.2755 14.7306C11.3716 14.7306 10.6388 13.9978 10.6388 13.0938M13.9122 13.0938C13.9122 12.1899 13.1795 11.4571 12.2755 11.4571C11.3716 11.4571 10.6388 12.1899 10.6388 13.0938M4.91019 13.0938H10.6388" stroke="#137C8E" stroke-linecap="round" stroke-linejoin="round"/>
</svg>
