<svg width="47" height="48" viewBox="0 0 47 48" fill="none" xmlns="http://www.w3.org/2000/svg">
<path d="M8.8125 3.52734H38.1875C41.4188 3.52734 44.0625 6.17109 44.0625 9.40234V38.7773C44.0625 42.0086 41.4188 44.6523 38.1875 44.6523H8.8125C5.58125 44.6523 2.9375 42.0086 2.9375 38.7773V9.40234C2.9375 6.17109 5.58125 3.52734 8.8125 3.52734Z" fill="black"/>
<path d="M10.8688 27.9085C10.8688 22.621 13.5125 17.3335 16.5969 17.3335C18.2125 17.3335 19.6812 18.3616 21.8844 21.446C19.8281 24.5304 18.6531 26.5866 18.6531 26.5866C15.8625 30.846 14.9813 31.8741 13.3656 31.8741C11.75 31.7272 10.8688 30.4054 10.8688 27.9085ZM28.9344 25.9991L27.025 22.9147C26.5844 22.0335 25.9969 21.2991 25.5562 20.5647C27.3188 17.921 28.6406 16.5991 30.4031 16.5991C33.9281 16.5991 36.7188 21.7397 36.7188 28.0554C36.7188 30.4054 35.9844 31.8741 34.3687 31.8741C32.6062 31.7272 31.8719 30.6991 28.9344 25.9991ZM23.9406 18.3616C21.2969 15.1304 19.2406 13.8085 16.5969 13.8085C11.3094 13.8085 7.34375 20.7116 7.34375 27.9085C7.34375 32.4616 9.54688 35.2522 13.2188 35.2522C15.8625 35.2522 17.7719 34.0772 21.15 28.0554C21.15 28.0554 22.6187 25.5585 23.5 23.796C23.7938 24.3835 24.2344 24.971 24.5281 25.5585L26.1437 28.2022C29.2281 33.3429 30.9906 35.1054 34.075 35.1054C37.6 35.1054 39.6562 32.1679 39.6562 27.6147C39.6562 19.9772 35.5437 13.6616 30.55 13.6616C27.9062 13.8085 25.85 15.8647 23.9406 18.3616Z" fill="white"/>
</svg>
