<svg width="25" height="24" viewBox="0 0 25 24" fill="none" xmlns="http://www.w3.org/2000/svg">
<g opacity="0.75" clip-path="url(#clip0_4795_24381)">
<path d="M19.8771 10V12C19.8771 13.8565 19.1396 15.637 17.8268 16.9497C16.5141 18.2625 14.7336 19 12.8771 19M12.8771 19C11.0206 19 9.24008 18.2625 7.92733 16.9497C6.61457 15.637 5.87708 13.8565 5.87708 12V10M12.8771 19V23M8.87708 23H16.8771M12.8771 1C12.0814 1 11.3184 1.31607 10.7558 1.87868C10.1931 2.44129 9.87708 3.20435 9.87708 4V12C9.87708 12.7956 10.1931 13.5587 10.7558 14.1213C11.3184 14.6839 12.0814 15 12.8771 15C13.6727 15 14.4358 14.6839 14.9984 14.1213C15.561 13.5587 15.8771 12.7956 15.8771 12V4C15.8771 3.20435 15.561 2.44129 14.9984 1.87868C14.4358 1.31607 13.6727 1 12.8771 1Z" stroke="#1E1E1E" stroke-width="2.5" stroke-linecap="round" stroke-linejoin="round"/>
</g>
<defs>
<clipPath id="clip0_4795_24381">
<rect width="24" height="24" fill="white" transform="translate(0.877075)"/>
</clipPath>
</defs>
</svg>
