<svg width="22" height="22" viewBox="0 0 22 22" fill="none" xmlns="http://www.w3.org/2000/svg">
<g opacity="0.5">
<g clip-path="url(#clip0_4816_10744)">
<path d="M17.336 9.66101V11.4197C17.336 13.0521 16.6875 14.6178 15.5331 15.7721C14.3788 16.9265 12.8132 17.575 11.1807 17.575M11.1807 17.575C9.54819 17.575 7.98257 16.9265 6.82823 15.7721C5.67389 14.6178 5.02539 13.0521 5.02539 11.4197V9.66101M11.1807 17.575V21.0923M7.66337 21.0923H14.698M11.1807 1.74707C10.481 1.74707 9.81006 2.025 9.31534 2.51972C8.82063 3.01443 8.5427 3.68541 8.5427 4.38505V11.4197C8.5427 12.1193 8.82063 12.7903 9.31534 13.285C9.81006 13.7797 10.481 14.0576 11.1807 14.0576C11.8803 14.0576 12.5513 13.7797 13.046 13.285C13.5407 12.7903 13.8187 12.1193 13.8187 11.4197V4.38505C13.8187 3.68541 13.5407 3.01443 13.046 2.51972C12.5513 2.025 11.8803 1.74707 11.1807 1.74707Z" stroke="#1E1E1E" stroke-width="2.5" stroke-linecap="round" stroke-linejoin="round"/>
</g>
<rect x="1.12891" y="1.36768" width="20.1038" height="20.1038" stroke="white"/>
</g>
<defs>
<clipPath id="clip0_4816_10744">
<rect x="0.628906" y="0.867676" width="21.1038" height="21.1038" fill="white"/>
</clipPath>
</defs>
</svg>
