<svg width="19" height="18" viewBox="0 0 19 18" fill="none" xmlns="http://www.w3.org/2000/svg">
<path d="M4.27499 14.4C4.64009 14.0126 6.34999 12.23 6.85108 12.23H12.1492C12.8753 12.23 14.3576 13.7077 14.725 14.2286M17.1 9C17.1 12.9765 13.6974 16.2 9.49999 16.2C5.30263 16.2 1.89999 12.9765 1.89999 9C1.89999 5.02355 5.30263 1.8 9.49999 1.8C13.6974 1.8 17.1 5.02355 17.1 9ZM12.2224 6.54597C12.2224 5.17234 10.9984 4.05 9.50022 4.05C8.00209 4.05 6.77804 5.17234 6.77804 6.54597C6.77804 7.9196 8.00209 9.04194 9.50022 9.04194C10.9984 9.04194 12.2224 7.9196 12.2224 6.54597Z" stroke="black" stroke-width="2"/>
</svg>
