<svg width="29" height="32" viewBox="0 0 29 32" fill="none" xmlns="http://www.w3.org/2000/svg">
<path d="M26.1761 3.86765V2.86765V3.86765ZM28 5.54542H27H28ZM1 5.54542H5.96046e-08H1ZM2.82387 3.86764L2.82387 4.86764L2.82387 3.86764ZM26.1761 30.97V29.97V30.97ZM28 29.2922H29H28ZM7.32112 26.8312H8.32112H7.32112ZM5.49518 25.1535V26.1535L5.49622 26.1535L5.49518 25.1535ZM1.70229 25.8069L2.38077 25.0723L1.70229 25.8069ZM9.60925 30.97V31.97V30.97ZM5.65964 29.4557L4.98279 30.1918L5.65964 29.4557ZM1.91525 11.4706C1.36297 11.4706 0.915254 11.9183 0.915254 12.4706C0.915254 13.0229 1.36297 13.4706 1.91525 13.4706V11.4706ZM27.7712 13.4706C28.3235 13.4706 28.7712 13.0229 28.7712 12.4706C28.7712 11.9183 28.3235 11.4706 27.7712 11.4706V13.4706ZM8.36622 7.34401C8.36622 7.8963 8.81393 8.34401 9.36622 8.34401C9.9185 8.34401 10.3662 7.8963 10.3662 7.34401H8.36622ZM10.3662 1C10.3662 0.447715 9.9185 0 9.36622 0C8.81393 0 8.36622 0.447715 8.36622 1H10.3662ZM19.3493 7.34401C19.3493 7.8963 19.797 8.34401 20.3493 8.34401C20.9016 8.34401 21.3493 7.8963 21.3493 7.34401H19.3493ZM21.3493 1C21.3493 0.447715 20.9016 0 20.3493 0C19.797 0 19.3493 0.447715 19.3493 1H21.3493ZM9.23729 17.2059C8.685 17.2059 8.23729 17.6536 8.23729 18.2059C8.23729 18.7582 8.685 19.2059 9.23729 19.2059V17.2059ZM9.4661 19.2059C10.0184 19.2059 10.4661 18.7582 10.4661 18.2059C10.4661 17.6536 10.0184 17.2059 9.4661 17.2059V19.2059ZM9.23729 22.0588C8.685 22.0588 8.23729 22.5065 8.23729 23.0588C8.23729 23.6111 8.685 24.0588 9.23729 24.0588V22.0588ZM9.4661 24.0588C10.0184 24.0588 10.4661 23.6111 10.4661 23.0588C10.4661 22.5065 10.0184 22.0588 9.4661 22.0588V24.0588ZM14.7288 17.2059C14.1765 17.2059 13.7288 17.6536 13.7288 18.2059C13.7288 18.7582 14.1765 19.2059 14.7288 19.2059V17.2059ZM14.9576 19.2059C15.5099 19.2059 15.9576 18.7582 15.9576 18.2059C15.9576 17.6536 15.5099 17.2059 14.9576 17.2059V19.2059ZM14.7288 22.0588C14.1765 22.0588 13.7288 22.5065 13.7288 23.0588C13.7288 23.6111 14.1765 24.0588 14.7288 24.0588V22.0588ZM14.9576 24.0588C15.5099 24.0588 15.9576 23.6111 15.9576 23.0588C15.9576 22.5065 15.5099 22.0588 14.9576 22.0588V24.0588ZM20.2203 17.2059C19.6681 17.2059 19.2203 17.6536 19.2203 18.2059C19.2203 18.7582 19.6681 19.2059 20.2203 19.2059V17.2059ZM20.4492 19.2059C21.0014 19.2059 21.4492 18.7582 21.4492 18.2059C21.4492 17.6536 21.0014 17.2059 20.4492 17.2059V19.2059ZM20.2203 22.0588C19.6681 22.0588 19.2203 22.5065 19.2203 23.0588C19.2203 23.6111 19.6681 24.0588 20.2203 24.0588V22.0588ZM20.4492 24.0588C21.0014 24.0588 21.4492 23.6111 21.4492 23.0588C21.4492 22.5065 21.0014 22.0588 20.4492 22.0588V24.0588ZM26.1761 30.97V29.97H9.60925V30.97V31.97H26.1761V30.97ZM1 24.217H2V5.54542H1H5.96046e-08L0 24.217H1ZM2.82387 3.86764L2.82387 4.86764L26.1761 4.86765V3.86765V2.86765L2.82387 2.86764L2.82387 3.86764ZM28 5.54542H27V29.2922H28H29V5.54542H28ZM26.1761 3.86765V4.86765C26.7114 4.86765 27 5.24806 27 5.54542H28H29C29 3.98956 27.6555 2.86765 26.1761 2.86765V3.86765ZM1 5.54542H2C2 5.24806 2.28862 4.86764 2.82387 4.86764L2.82387 3.86764L2.82387 2.86764C1.34454 2.86764 1.78814e-07 3.98956 5.96046e-08 5.54542H1ZM5.65964 29.4557L6.3365 28.7196C5.04926 27.536 3.32949 25.9485 2.38077 25.0723L1.70229 25.8069L1.02382 26.5415C1.97257 27.4178 3.69378 29.0066 4.98279 30.1918L5.65964 29.4557ZM26.1761 30.97V31.97C27.6555 31.97 29 30.8481 29 29.2922H28H27C27 29.5895 26.7114 29.97 26.1761 29.97V30.97ZM7.32112 26.8312H6.32112V31H7.32112H8.32112V26.8312H7.32112ZM1 25.1535V26.1535H5.49518V25.1535V24.1535H1V25.1535ZM7.32112 26.8312H8.32112C8.32112 25.2741 6.97457 24.1519 5.49414 24.1535L5.49518 25.1535L5.49622 26.1535C6.032 26.1529 6.32112 26.5337 6.32112 26.8312H7.32112ZM1 24.217H0C0 25.1016 0.371754 25.9393 1.02382 26.5415L1.70229 25.8069L2.38077 25.0723C2.13221 24.8427 2 24.5349 2 24.217H1ZM9.60925 30.97V29.97C9.13371 29.97 8.49881 29.8381 7.86065 29.5941C7.22098 29.3495 6.67207 29.0281 6.3365 28.7196L5.65964 29.4557L4.98279 30.1918C5.56168 30.7241 6.35573 31.1599 7.14632 31.4622C7.93842 31.7651 8.8211 31.97 9.60925 31.97V30.97ZM1.91525 12.4706V13.4706H27.7712V12.4706V11.4706H1.91525V12.4706ZM9.36622 7.34401H10.3662V1H9.36622H8.36622V7.34401H9.36622ZM20.3493 7.34401H21.3493V1H20.3493H19.3493V7.34401H20.3493ZM9.23729 18.2059V19.2059H9.4661V18.2059V17.2059H9.23729V18.2059ZM9.23729 23.0588V24.0588H9.4661V23.0588V22.0588H9.23729V23.0588ZM14.7288 18.2059V19.2059H14.9576V18.2059V17.2059H14.7288V18.2059ZM14.7288 23.0588V24.0588H14.9576V23.0588V22.0588H14.7288V23.0588ZM20.2203 18.2059V19.2059H20.4492V18.2059V17.2059H20.2203V18.2059ZM20.2203 23.0588V24.0588H20.4492V23.0588V22.0588H20.2203V23.0588Z" fill="#434A54"/>
</svg>
