<svg width="16" height="20" viewBox="0 0 16 20" fill="none" xmlns="http://www.w3.org/2000/svg">
<path opacity="0.75" d="M6.90387 11.3895C7.06843 11.1677 7.02207 10.8545 6.80032 10.69C6.57857 10.5254 6.2654 10.5718 6.10084 10.7935L6.90387 11.3895ZM4.59062 12.8286C4.42606 13.0503 4.47242 13.3635 4.69417 13.5281C4.91592 13.6926 5.22909 13.6463 5.39366 13.4245L4.59062 12.8286ZM3.70886 11.467C3.49274 11.2952 3.17819 11.331 3.0063 11.5471C2.83441 11.7633 2.87027 12.0778 3.08639 12.2497L3.70886 11.467ZM6.39714 14.8829C6.61327 15.0548 6.92781 15.0189 7.0997 14.8028C7.27159 14.5867 7.23573 14.2721 7.01961 14.1002L6.39714 14.8829ZM2.90821 18.2822L3.30973 18.5802L2.90821 18.2822ZM0.838988 16.6365L0.437471 16.3385L0.838988 16.6365ZM1.07875 18.5304L0.767515 18.9217L1.07875 18.5304ZM13.7471 9.67113C12.095 11.8974 9.02528 12.3089 6.88372 10.6057L6.26125 11.3883C8.85222 13.449 12.5664 12.9402 14.5501 10.2671L13.7471 9.67113ZM6.88372 10.6057C4.7316 8.894 4.32149 5.68815 5.9811 3.45177L5.17807 2.85584C3.20187 5.51882 3.68083 9.336 6.26125 11.3883L6.88372 10.6057ZM5.9811 3.45177C7.63318 1.22555 10.7029 0.81396 12.8445 2.51723L13.4669 1.73459C10.876 -0.326125 7.1618 0.182699 5.17807 2.85584L5.9811 3.45177ZM12.8445 2.51723C14.9966 4.2289 15.4067 7.43475 13.7471 9.67113L14.5501 10.2671C16.5263 7.60408 16.0474 3.7869 13.4669 1.73459L12.8445 2.51723ZM6.10084 10.7935L4.59062 12.8286L5.39366 13.4245L6.90387 11.3895L6.10084 10.7935ZM3.08639 12.2497L6.39714 14.8829L7.01961 14.1002L3.70886 11.467L3.08639 12.2497ZM5.68609 13.6999L2.50669 17.9842L3.30973 18.5802L6.48913 14.2958L5.68609 13.6999ZM1.24051 16.9344L4.41991 12.6501L3.61687 12.0542L0.437471 16.3385L1.24051 16.9344ZM1.38998 18.1391C1.03273 17.8549 0.959813 17.3127 1.24051 16.9344L0.437471 16.3385C-0.159803 17.1433 -0.0180343 18.2969 0.767515 18.9217L1.38998 18.1391ZM2.50669 17.9842C2.23354 18.3523 1.73668 18.4148 1.38998 18.1391L0.767515 18.9217C1.56362 19.5549 2.70492 19.3952 3.30973 18.5802L2.50669 17.9842Z" fill="black"/>
</svg>
