<svg width="25" height="25" viewBox="0 0 25 25" fill="none" xmlns="http://www.w3.org/2000/svg">
<rect x="0.971802" y="0.202026" width="24" height="24" rx="8" fill="#F1F1F4"/>
<path d="M12.9718 15.5354C13.1607 15.5354 13.319 15.4715 13.4468 15.3437C13.5746 15.2159 13.6385 15.0576 13.6385 14.8687C13.6385 14.6798 13.5746 14.5215 13.4468 14.3937C13.319 14.2659 13.1607 14.202 12.9718 14.202C12.7829 14.202 12.6246 14.2659 12.4968 14.3937C12.369 14.5215 12.3051 14.6798 12.3051 14.8687C12.3051 15.0576 12.369 15.2159 12.4968 15.3437C12.6246 15.4715 12.7829 15.5354 12.9718 15.5354ZM12.3051 12.8687H13.6385V8.8687H12.3051V12.8687ZM12.9718 18.8687C12.0496 18.8687 11.1829 18.6937 10.3718 18.3437C9.56069 17.9937 8.85513 17.5187 8.25513 16.9187C7.65513 16.3187 7.18013 15.6131 6.83013 14.802C6.48013 13.9909 6.30513 13.1243 6.30513 12.202C6.30513 11.2798 6.48013 10.4131 6.83013 9.60204C7.18013 8.79093 7.65513 8.08537 8.25513 7.48537C8.85513 6.88537 9.56069 6.41037 10.3718 6.06037C11.1829 5.71037 12.0496 5.53537 12.9718 5.53537C13.894 5.53537 14.7607 5.71037 15.5718 6.06037C16.3829 6.41037 17.0885 6.88537 17.6885 7.48537C18.2885 8.08537 18.7635 8.79093 19.1135 9.60204C19.4635 10.4131 19.6385 11.2798 19.6385 12.202C19.6385 13.1243 19.4635 13.9909 19.1135 14.802C18.7635 15.6131 18.2885 16.3187 17.6885 16.9187C17.0885 17.5187 16.3829 17.9937 15.5718 18.3437C14.7607 18.6937 13.894 18.8687 12.9718 18.8687Z" fill="#FF4625"/>
</svg>
