<svg width="32" height="31" viewBox="0 0 32 31" fill="none" xmlns="http://www.w3.org/2000/svg">
<path opacity="0.75" fill-rule="evenodd" clip-rule="evenodd" d="M15.6667 3C16.0203 3 16.3595 3.13609 16.6095 3.37832L25.9428 12.42C26.4635 12.9244 26.4635 13.7423 25.9428 14.2467C25.4221 14.7511 24.5779 14.7511 24.0572 14.2467L17 7.41002V24.9583C17 25.6717 16.4031 26.25 15.6667 26.25C14.9303 26.25 14.3333 25.6717 14.3333 24.9583V7.41002L7.27615 14.2467C6.75544 14.7511 5.91123 14.7511 5.39052 14.2467C4.86983 13.7423 4.86983 12.9244 5.39052 12.42L14.7239 3.37832C14.9739 3.13609 15.3131 3 15.6667 3Z" fill="#1E1E1E"/>
</svg>
